<svg xmlns="http://www.w3.org/2000/svg" width="32" height="32" viewBox="0 0 32 32">
    <defs>
        <filter id="a" width="140.6%" height="140.6%" x="-20.3%" y="-20.3%" filterUnits="objectBoundingBox">
            <feOffset dy="1" in="SourceAlpha" result="shadowOffsetOuter1"/>
            <feGaussianBlur in="shadowOffsetOuter1" result="shadowBlurOuter1" stdDeviation="1"/>
            <feColorMatrix in="shadowBlurOuter1" result="shadowMatrixOuter1" values="0 0 0 0 0 0 0 0 0 0 0 0 0 0 0 0 0 0 0.5 0"/>
            <feMerge>
                <feMergeNode in="shadowMatrixOuter1"/>
                <feMergeNode in="SourceGraphic"/>
            </feMerge>
        </filter>
    </defs>
    <g fill="none" fill-rule="evenodd" filter="url(#a)">
        <path d="M0 0h32v32H0z"/>
        <path fill="#FFF" d="M10 21a1 1 0 0 1 1 1v6a1 1 0 0 1-2 0v-5H4a1 1 0 0 1 0-2h6zm18 0a1 1 0 0 1 0 2h-5v5a1 1 0 0 1-2 0v-6a1 1 0 0 1 1-1zM10 3a1 1 0 0 1 .993.883L11 4v6a1 1 0 0 1-.883.993L10 11H4a1 1 0 0 1-.117-1.993L4 9h5V4a1 1 0 0 1 1-1zm12 0a1 1 0 0 1 1 1v5h5a1 1 0 0 1 0 2h-6a1 1 0 0 1-1-1V4a1 1 0 0 1 1-1z"/>
    </g>
</svg>
