<?xml version="1.0" encoding="UTF-8"?>
<svg width="20px" height="20px" viewBox="0 0 20 20" version="1.1" xmlns="http://www.w3.org/2000/svg" xmlns:xlink="http://www.w3.org/1999/xlink">
    <title>Quality-Green</title>
    <g id="Page-1" stroke="none" stroke-width="1" fill="none" fill-rule="evenodd">
        <g id="Quality-Green" transform="translate(-2.000000, -2.000000)">
            <polygon id="Path" points="0 0 24 0 24 24 0 24"></polygon>
            <path d="M13.0081547,2 C14.1201494,2 15.0244642,2.897 15.0244642,4 L15.0244642,4.598 C15.7095964,4.880796 16.3526696,5.25490631 16.9359256,5.71 L17.4692394,5.404 C18.3997663,4.871 19.6871799,5.216 20.22251,6.136 L21.2296566,7.865 C21.7853956,8.82145455 21.4557116,10.043631 20.4926955,10.597 L19.9835773,10.889 C20.0918235,11.6264456 20.0918235,12.3755544 19.9835773,13.113 L20.4926955,13.405 C21.4561886,13.9580066 21.7859912,15.1806232 21.2296566,16.137 L20.22251,17.866 C19.6851635,18.785 18.3997663,19.127 17.4692394,18.597 L16.9359256,18.291 C16.3523851,18.7454143 15.7093616,19.1191593 15.0244642,19.402 L15.0244642,20 C15.0244642,21.103 14.1201494,22 13.0081547,22 L10.9918453,22 C9.87985059,22 8.97553579,21.103 8.97553579,20 L8.97553579,19.402 C8.29040357,19.119204 7.64733035,18.7450937 7.06407442,18.29 L6.53076056,18.596 C5.60225005,19.127 4.3138283,18.783 3.77849813,17.866 L2.7703434,16.136 C2.21451455,15.1792446 2.54416102,13.9567597 3.50730451,13.403 L4.01642265,13.111 C3.90777647,12.3739183 3.90777647,11.6250817 4.01642265,10.888 L3.50730451,10.596 C2.54381143,10.0429934 2.21400876,8.82037681 2.7703434,7.864 L3.77748998,6.135 C4.31282014,5.216 5.59922559,4.872 6.53076056,5.403 L7.06407442,5.709 C7.64761488,5.25458573 8.29063844,4.88084071 8.97553579,4.598 L8.97553579,4 C8.97553579,2.897 9.87985059,2 10.9918453,2 Z M13.0093937,4 L10.9889196,4 L10.9889196,5.3 C10.9887338,5.73965642 10.6984719,6.12762035 10.2736717,6.256 C9.37287397,6.5328137 8.54871192,7.01155486 7.86526657,7.655 C7.54154883,7.96108902 7.0525836,8.01894211 6.66510493,7.797 L5.50838348,7.135 L4.50016689,8.864 L5.63466312,9.514 C6.02515278,9.736923 6.21894526,10.189149 6.10947454,10.622 C5.99632799,11.074 5.93773424,11.538 5.93773424,12 C5.93840011,12.4645838 5.99641353,12.9273464 6.11048478,13.378 C6.21941492,13.8110554 6.02527033,14.2631412 5.63466312,14.486 L4.49915665,15.137 L5.50939372,16.866 L6.66510493,16.204 C7.05200305,15.9800628 7.54207219,16.0376382 7.86526657,16.345 C8.5489753,16.9880989 9.37305089,17.4667898 10.2736717,17.744 C10.6984719,17.8723796 10.9887338,18.2603436 10.9889196,18.7 L10.9889196,20 L13.0114142,20 L13.0093937,18.7 C13.0095795,18.2603436 13.2998414,17.8723796 13.7246416,17.744 C14.6254393,17.4671863 15.4496014,16.9884451 16.1330467,16.345 C16.4566127,16.0385927 16.9458014,15.9807132 17.3332084,16.203 L18.4899298,16.864 L19.4981464,15.135 L18.3636502,14.486 C17.973043,14.2631412 17.7788984,13.8110554 17.8878285,13.378 C18.0019853,12.925 18.0605791,12.461 18.0605791,12 C18.0605791,11.538 18.0019853,11.074 17.8888388,10.622 C17.7797255,10.1891767 17.9734291,9.73715818 18.3636502,9.514 L19.4991567,8.865 L18.4889196,7.136 L17.3332084,7.797 C16.9455874,8.01825566 16.4570662,7.96045511 16.1330467,7.655 C15.449338,7.0119011 14.6252624,6.53321016 13.7246416,6.256 C13.2998414,6.12762035 13.0095795,5.73965642 13.0093937,5.3 L13.0093937,4 Z M10,8.9999963 L15,11.9999963 L10,14.9999963 L10,8.9999963 Z" id="Combined-Shape" fill="#00CC99"></path>
        </g>
    </g>
</svg>