<svg xmlns="http://www.w3.org/2000/svg" width="32" height="32" viewBox="0 0 32 32">
    <defs>
        <filter id="a" width="140.6%" height="140.6%" x="-20.3%" y="-20.3%" filterUnits="objectBoundingBox">
            <feOffset dy="1" in="SourceAlpha" result="shadowOffsetOuter1"/>
            <feGaussianBlur in="shadowOffsetOuter1" result="shadowBlurOuter1" stdDeviation="1"/>
            <feColorMatrix in="shadowBlurOuter1" result="shadowMatrixOuter1" values="0 0 0 0 0 0 0 0 0 0 0 0 0 0 0 0 0 0 0.5 0"/>
            <feMerge>
                <feMergeNode in="shadowMatrixOuter1"/>
                <feMergeNode in="SourceGraphic"/>
            </feMerge>
        </filter>
    </defs>
    <g fill="none" fill-rule="evenodd" filter="url(#a)">
        <path d="M0 0h32v32H0z"/>
        <path fill="#FFF" d="M4.816 9.058L19 23.243V28a1 1 0 0 1-1.6.8L9.667 23H5.333A2.333 2.333 0 0 1 3 20.667v-9.334c0-1.11.776-2.04 1.816-2.275zM4.613 3.21l.094.083 24 24a1 1 0 0 1-1.32 1.497l-.094-.083-24-24a1 1 0 0 1 1.32-1.497zm21.994 2.183A14.953 14.953 0 0 1 31 16c0 2.606-.666 5.118-1.916 7.341a1 1 0 0 1-1.744-.98A12.935 12.935 0 0 0 29 16c0-3.496-1.385-6.77-3.808-9.192a1 1 0 0 1 1.415-1.415zM20.95 9.636a1 1 0 0 1 1.414 0A8.973 8.973 0 0 1 25 16a9.044 9.044 0 0 1-.295 2.292 1 1 0 0 1-1.934-.508A6.95 6.95 0 0 0 23 16a6.974 6.974 0 0 0-2.05-4.95 1 1 0 0 1 0-1.414zM19 4v10.757l-7.291-7.29L17.4 3.2A1 1 0 0 1 19 4z"/>
    </g>
</svg>
